<?xml version="1.0" encoding="UTF-8" standalone="no"?><svg xmlns="http://www.w3.org/2000/svg" xmlns:xlink="http://www.w3.org/1999/xlink" contentScriptType="application/ecmascript" contentStyleType="text/css" height="526px" preserveAspectRatio="none" style="width:460px;height:526px;" version="1.1" viewBox="0 0 460 526" width="460px" zoomAndPan="magnify"><defs><filter height="300%" id="f7xfkh9gv7d87" width="300%" x="-1" y="-1"><feGaussianBlur result="blurOut" stdDeviation="2.0"/><feColorMatrix in="blurOut" result="blurOut2" type="matrix" values="0 0 0 0 0 0 0 0 0 0 0 0 0 0 0 0 0 0 .4 0"/><feOffset dx="4.0" dy="4.0" in="blurOut2" result="blurOut3"/><feBlend in="SourceGraphic" in2="blurOut3" mode="normal"/></filter></defs><g><rect fill="#FEFECE" filter="url(#f7xfkh9gv7d87)" height="36.0986" rx="12.5" ry="12.5" style="stroke:#A80036;stroke-width:1.5;" width="208" x="10" y="244.3945"/><text fill="#000000" font-family="Arial" font-size="14" lengthAdjust="spacing" textLength="188" x="20" y="267.5264">RecuperoLaboratorioSolicitud</text><rect fill="#FEFECE" filter="url(#f7xfkh9gv7d87)" height="36.0986" rx="12.5" ry="12.5" style="stroke:#A80036;stroke-width:1.5;" width="112" x="268" y="20"/><text fill="#000000" font-family="Arial" font-size="14" lengthAdjust="spacing" textLength="92" x="278" y="43.1318">DatosPaciente</text><path d="M218,262.4438 L228,262.4438 C243,262.4438 243,38.0493 258,38.0493 L268,38.0493 " fill="none" style="stroke:#A80036;stroke-width:1.0;"/><rect fill="#FEFECE" filter="url(#f7xfkh9gv7d87)" height="36.0986" rx="12.5" ry="12.5" style="stroke:#A80036;stroke-width:1.5;" width="114" x="268" y="76.0986"/><text fill="#000000" font-family="Arial" font-size="14" lengthAdjust="spacing" textLength="94" x="278" y="99.2305">DatosContexto</text><path d="M218,262.4438 L228,262.4438 C243,262.4438 243,94.1479 258,94.1479 L268,94.1479 " fill="none" style="stroke:#A80036;stroke-width:1.0;"/><rect fill="#FEFECE" filter="url(#f7xfkh9gv7d87)" height="36.0986" rx="12.5" ry="12.5" style="stroke:#A80036;stroke-width:1.5;" width="161" x="268" y="132.1973"/><text fill="#000000" font-family="Arial" font-size="14" lengthAdjust="spacing" textLength="141" x="278" y="155.3291">DiagnosticoPresuntivo</text><path d="M218,262.4438 L228,262.4438 C243,262.4438 243,150.2466 258,150.2466 L268,150.2466 " fill="none" style="stroke:#A80036;stroke-width:1.0;"/><rect fill="#FEFECE" filter="url(#f7xfkh9gv7d87)" height="36.0986" rx="12.5" ry="12.5" style="stroke:#A80036;stroke-width:1.5;" width="156" x="268" y="188.2959"/><text fill="#000000" font-family="Arial" font-size="14" lengthAdjust="spacing" textLength="136" x="278" y="211.4277">ProfesionalSolicitante</text><path d="M218,262.4438 L228,262.4438 C243,262.4438 243,206.3452 258,206.3452 L268,206.3452 " fill="none" style="stroke:#A80036;stroke-width:1.0;"/><rect fill="#FEFECE" filter="url(#f7xfkh9gv7d87)" height="36.0986" rx="12.5" ry="12.5" style="stroke:#A80036;stroke-width:1.5;" width="136" x="268" y="244.3945"/><text fill="#000000" font-family="Arial" font-size="14" lengthAdjust="spacing" textLength="116" x="278" y="267.5264">ProfesionalEfector</text><path d="M218,262.4438 L228,262.4438 C243,262.4438 243,262.4438 258,262.4438 L268,262.4438 " fill="none" style="stroke:#A80036;stroke-width:1.0;"/><rect fill="#FEFECE" filter="url(#f7xfkh9gv7d87)" height="36.0986" rx="12.5" ry="12.5" style="stroke:#A80036;stroke-width:1.5;" width="117" x="268" y="300.4932"/><text fill="#000000" font-family="Arial" font-size="14" lengthAdjust="spacing" textLength="97" x="278" y="323.625">FechasServicio</text><path d="M218,262.4438 L228,262.4438 C243,262.4438 243,318.5425 258,318.5425 L268,318.5425 " fill="none" style="stroke:#A80036;stroke-width:1.0;"/><rect fill="#FEFECE" filter="url(#f7xfkh9gv7d87)" height="36.0986" rx="12.5" ry="12.5" style="stroke:#A80036;stroke-width:1.5;" width="121" x="268" y="356.5918"/><text fill="#000000" font-family="Arial" font-size="14" lengthAdjust="spacing" textLength="101" x="278" y="379.7236">DatosCobertura</text><path d="M218,262.4438 L228,262.4438 C243,262.4438 243,374.6411 258,374.6411 L268,374.6411 " fill="none" style="stroke:#A80036;stroke-width:1.0;"/><rect fill="#FEFECE" filter="url(#f7xfkh9gv7d87)" height="36.0986" rx="12.5" ry="12.5" style="stroke:#A80036;stroke-width:1.5;" width="173" x="268" y="412.6904"/><text fill="#000000" font-family="Arial" font-size="14" lengthAdjust="spacing" textLength="153" x="278" y="435.8223">documentacionAuditoria</text><path d="M218,262.4438 L228,262.4438 C243,262.4438 243,430.7397 258,430.7397 L268,430.7397 " fill="none" style="stroke:#A80036;stroke-width:1.0;"/><rect fill="#FEFECE" filter="url(#f7xfkh9gv7d87)" height="36.0986" rx="12.5" ry="12.5" style="stroke:#A80036;stroke-width:1.5;" width="101" x="268" y="468.7891"/><text fill="#000000" font-family="Arial" font-size="14" lengthAdjust="spacing" textLength="81" x="278" y="491.9209">prestaciones</text><path d="M218,262.4438 L228,262.4438 C243,262.4438 243,486.8384 258,486.8384 L268,486.8384 " fill="none" style="stroke:#A80036;stroke-width:1.0;"/><!--MD5=[4746502d27eae742265b7d36a25d6a4b]
@startmindmap RecuperoLaboratorioSolicitud
skinparam backgroundColor white
skinparam defaultFontName Arial
skinparam defaultFontSize 12

* RecuperoLaboratorioSolicitud
** DatosPaciente
** DatosContexto
** DiagnosticoPresuntivo
** ProfesionalSolicitante
** ProfesionalEfector
** FechasServicio
** DatosCobertura
** documentacionAuditoria
** prestaciones

@endmindmap

PlantUML version 1.2021.00(Sun Jan 10 07:25:05 ART 2021)
(MIT source distribution)
Java Runtime: OpenJDK Runtime Environment
JVM: OpenJDK 64-Bit Server VM
Default Encoding: UTF-8
Language: en
Country: AR
--></g></svg>