<?xml version="1.0" encoding="UTF-8" standalone="no"?><svg xmlns="http://www.w3.org/2000/svg" xmlns:xlink="http://www.w3.org/1999/xlink" contentScriptType="application/ecmascript" contentStyleType="text/css" height="244px" preserveAspectRatio="none" style="width:496px;height:244px;" version="1.1" viewBox="0 0 496 244" width="496px" zoomAndPan="magnify"><defs><filter height="300%" id="f1j2oevi62jpxv" width="300%" x="-1" y="-1"><feGaussianBlur result="blurOut" stdDeviation="2.0"/><feColorMatrix in="blurOut" result="blurOut2" type="matrix" values="0 0 0 0 0 0 0 0 0 0 0 0 0 0 0 0 0 0 .4 0"/><feOffset dx="4.0" dy="4.0" in="blurOut2" result="blurOut3"/><feBlend in="SourceGraphic" in2="blurOut3" mode="normal"/></filter></defs><g><!--MD5=[0079232648f15e8909892259e2278474]
cluster DatosPaciente--><polygon fill="#FFFFFF" filter="url(#f1j2oevi62jpxv)" points="16,6,106,6,113,25.7988,306,25.7988,306,237.99,16,237.99,16,6" style="stroke:#000000;stroke-width:1.5;"/><line style="stroke:#000000;stroke-width:1.5;" x1="16" x2="113" y1="25.7988" y2="25.7988"/><text fill="#000000" font-family="Arial" font-size="12" font-weight="bold" lengthAdjust="spacing" textLength="84" x="20" y="19.2559">DatosPaciente</text><!--MD5=[e0e66193e022162787dfc18365330581]
class DatosPaciente--><rect codeLine="6" fill="#FEFECE" filter="url(#f1j2oevi62jpxv)" height="183.9883" id="DatosPaciente" style="stroke:#A80036;stroke-width:1.5;" width="258" x="32" y="38"/><ellipse cx="117" cy="53" fill="#ADD1B2" rx="10" ry="10" style="stroke:#A80036;stroke-width:1.0;"/><path d="M118.834,57.248 Q118.4238,57.459 117.9727,57.5645 Q117.5215,57.6699 117.0234,57.6699 Q115.2539,57.6699 114.3223,56.5039 Q113.3906,55.3379 113.3906,53.1348 Q113.3906,50.9258 114.3223,49.7598 Q115.2539,48.5938 117.0234,48.5938 Q117.5215,48.5938 117.9785,48.6992 Q118.4355,48.8047 118.834,49.0156 L118.834,50.9375 Q118.3887,50.5273 117.9697,50.3369 Q117.5508,50.1465 117.1055,50.1465 Q116.1563,50.1465 115.6729,50.8994 Q115.1895,51.6523 115.1895,53.1348 Q115.1895,54.6113 115.6729,55.3643 Q116.1563,56.1172 117.1055,56.1172 Q117.5508,56.1172 117.9697,55.9268 Q118.3887,55.7363 118.834,55.3262 Z " fill="#000000"/><text fill="#000000" font-family="Arial" font-size="12" lengthAdjust="spacing" textLength="80" x="136" y="57.3564">DatosPaciente</text><line style="stroke:#A80036;stroke-width:1.5;" x1="33" x2="289" y1="68" y2="68"/><ellipse cx="43" cy="79" fill="none" rx="3" ry="3" style="stroke:#038048;stroke-width:1.0;"/><text fill="#000000" font-family="Arial" font-size="12" lengthAdjust="spacing" textLength="164" x="51" y="83.2559">idPaciente: BackboneElement</text><line style="stroke:#A80036;stroke-width:1.5;" x1="33" x2="289" y1="89.7988" y2="89.7988"/><ellipse cx="43" cy="100.7988" fill="#84BE84" rx="3" ry="3" style="stroke:#038048;stroke-width:1.0;"/><text fill="#000000" font-family="Arial" font-size="12" lengthAdjust="spacing" textLength="159" x="51" y="105.0547">apellidoPaciente: string (1..1)</text><ellipse cx="43" cy="114.5977" fill="#84BE84" rx="3" ry="3" style="stroke:#038048;stroke-width:1.0;"/><text fill="#000000" font-family="Arial" font-size="12" lengthAdjust="spacing" textLength="181" x="51" y="118.8535">otroApellidoPaciente: string (0..1)</text><ellipse cx="43" cy="128.3965" fill="#84BE84" rx="3" ry="3" style="stroke:#038048;stroke-width:1.0;"/><text fill="#000000" font-family="Arial" font-size="12" lengthAdjust="spacing" textLength="157" x="51" y="132.6523">nombrePaciente: string (1..1)</text><ellipse cx="43" cy="142.1953" fill="#84BE84" rx="3" ry="3" style="stroke:#038048;stroke-width:1.0;"/><text fill="#000000" font-family="Arial" font-size="12" lengthAdjust="spacing" textLength="180" x="51" y="146.4512">otroNombrePaciente: string (0..1)</text><ellipse cx="43" cy="155.9941" fill="#84BE84" rx="3" ry="3" style="stroke:#038048;stroke-width:1.0;"/><text fill="#000000" font-family="Arial" font-size="12" lengthAdjust="spacing" textLength="233" x="51" y="160.25">nombreAutopercibidoPaciente: string (0..1)</text><ellipse cx="43" cy="169.793" fill="#84BE84" rx="3" ry="3" style="stroke:#038048;stroke-width:1.0;"/><text fill="#000000" font-family="Arial" font-size="12" lengthAdjust="spacing" textLength="198" x="51" y="174.0488">tipoDocumentoPaciente: string (1..1)</text><ellipse cx="43" cy="183.5918" fill="#84BE84" rx="3" ry="3" style="stroke:#038048;stroke-width:1.0;"/><text fill="#000000" font-family="Arial" font-size="12" lengthAdjust="spacing" textLength="176" x="51" y="187.8477">documentoPaciente: string (1..1)</text><ellipse cx="43" cy="197.3906" fill="#84BE84" rx="3" ry="3" style="stroke:#038048;stroke-width:1.0;"/><text fill="#000000" font-family="Arial" font-size="12" lengthAdjust="spacing" textLength="163" x="51" y="201.6465">codSexoPaciente: string (1..1)</text><ellipse cx="43" cy="211.1895" fill="#84BE84" rx="3" ry="3" style="stroke:#038048;stroke-width:1.0;"/><text fill="#000000" font-family="Arial" font-size="12" lengthAdjust="spacing" textLength="201" x="51" y="215.4453">fechaNacimientoPaciente: date (1..1)</text><path d="M325,90.5 L325,126 L290.2,130 L325,134 L325,169.4941 A0,0 0 0 0 325,169.4941 L487,169.4941 A0,0 0 0 0 487,169.4941 L487,100.5 L477,90.5 L325,90.5 A0,0 0 0 0 325,90.5 " fill="#FBFB77" filter="url(#f1j2oevi62jpxv)" style="stroke:#A80036;stroke-width:1.0;"/><path d="M477,90.5 L477,100.5 L487,100.5 L477,90.5 " fill="#FBFB77" style="stroke:#A80036;stroke-width:1.0;"/><text fill="#000000" font-family="Arial" font-size="12" lengthAdjust="spacing" textLength="135" x="331" y="106.7559">Información del Paciente</text><text fill="#000000" font-family="Arial" font-size="12" lengthAdjust="spacing" textLength="112" x="331" y="120.5547">- Identificación única</text><text fill="#000000" font-family="Arial" font-size="12" lengthAdjust="spacing" textLength="119" x="331" y="134.3535">- Nombres y apellidos</text><text fill="#000000" font-family="Arial" font-size="12" lengthAdjust="spacing" textLength="141" x="331" y="148.1523">- Documento de identidad</text><text fill="#000000" font-family="Arial" font-size="12" lengthAdjust="spacing" textLength="116" x="331" y="161.9512">- Datos demográficos</text><!--MD5=[cd0f5aa26e6619cd58f423d0cc0a441b]
@startuml DatosPaciente
skinparam backgroundColor white
skinparam defaultFontName Arial
skinparam defaultFontSize 12

package "DatosPaciente" {
  class DatosPaciente {
    + idPaciente: BackboneElement
    + apellidoPaciente: string (1..1)
    + otroApellidoPaciente: string (0..1)
    + nombrePaciente: string (1..1)
    + otroNombrePaciente: string (0..1)
    + nombreAutopercibidoPaciente: string (0..1)
    + tipoDocumentoPaciente: string (1..1)
    + documentoPaciente: string (1..1)
    + codSexoPaciente: string (1..1)
    + fechaNacimientoPaciente: date (1..1)
  }
}

note right of DatosPaciente
  Información del Paciente
  - Identificación única
  - Nombres y apellidos
  - Documento de identidad
  - Datos demográficos
end note

@enduml

PlantUML version 1.2021.00(Sun Jan 10 07:25:05 ART 2021)
(MIT source distribution)
Java Runtime: OpenJDK Runtime Environment
JVM: OpenJDK 64-Bit Server VM
Default Encoding: UTF-8
Language: en
Country: AR
--></g></svg>