<?xml version="1.0" encoding="UTF-8" standalone="no"?><svg xmlns="http://www.w3.org/2000/svg" xmlns:xlink="http://www.w3.org/1999/xlink" contentScriptType="application/ecmascript" contentStyleType="text/css" height="162px" preserveAspectRatio="none" style="width:558px;height:162px;" version="1.1" viewBox="0 0 558 162" width="558px" zoomAndPan="magnify"><defs><filter height="300%" id="f14lfwdk5inzna" width="300%" x="-1" y="-1"><feGaussianBlur result="blurOut" stdDeviation="2.0"/><feColorMatrix in="blurOut" result="blurOut2" type="matrix" values="0 0 0 0 0 0 0 0 0 0 0 0 0 0 0 0 0 0 .4 0"/><feOffset dx="4.0" dy="4.0" in="blurOut2" result="blurOut3"/><feBlend in="SourceGraphic" in2="blurOut3" mode="normal"/></filter></defs><g><!--MD5=[7a93d2451f973cff0716f9495746af5a]
cluster ProfesionalSolicitante--><polygon fill="#FFFFFF" filter="url(#f14lfwdk5inzna)" points="16,6,147,6,154,25.7988,292,25.7988,292,155.2,16,155.2,16,6" style="stroke:#000000;stroke-width:1.5;"/><line style="stroke:#000000;stroke-width:1.5;" x1="16" x2="154" y1="25.7988" y2="25.7988"/><text fill="#000000" font-family="Arial" font-size="12" font-weight="bold" lengthAdjust="spacing" textLength="125" x="20" y="19.2559">ProfesionalSolicitante</text><!--MD5=[aeee6ad8720da6fa51d09556cedf5fd2]
class ProfesionalSolicitante--><rect codeLine="7" fill="#FEFECE" filter="url(#f14lfwdk5inzna)" height="101.1953" id="ProfesionalSolicitante" style="stroke:#A80036;stroke-width:1.5;" width="243" x="32.5" y="38"/><ellipse cx="90.5" cy="53" fill="#ADD1B2" rx="10" ry="10" style="stroke:#A80036;stroke-width:1.0;"/><path d="M92.334,57.248 Q91.9238,57.459 91.4727,57.5645 Q91.0215,57.6699 90.5234,57.6699 Q88.7539,57.6699 87.8223,56.5039 Q86.8906,55.3379 86.8906,53.1348 Q86.8906,50.9258 87.8223,49.7598 Q88.7539,48.5938 90.5234,48.5938 Q91.0215,48.5938 91.4785,48.6992 Q91.9355,48.8047 92.334,49.0156 L92.334,50.9375 Q91.8887,50.5273 91.4697,50.3369 Q91.0508,50.1465 90.6055,50.1465 Q89.6563,50.1465 89.1729,50.8994 Q88.6895,51.6523 88.6895,53.1348 Q88.6895,54.6113 89.1729,55.3643 Q89.6563,56.1172 90.6055,56.1172 Q91.0508,56.1172 91.4697,55.9268 Q91.8887,55.7363 92.334,55.3262 Z " fill="#000000"/><text fill="#000000" font-family="Arial" font-size="12" lengthAdjust="spacing" textLength="119" x="109.5" y="57.3564">ProfesionalSolicitante</text><line style="stroke:#A80036;stroke-width:1.5;" x1="33.5" x2="274.5" y1="68" y2="68"/><line style="stroke:#A80036;stroke-width:1.5;" x1="33.5" x2="274.5" y1="76" y2="76"/><ellipse cx="43.5" cy="87" fill="#84BE84" rx="3" ry="3" style="stroke:#038048;stroke-width:1.0;"/><text fill="#000000" font-family="Arial" font-size="12" lengthAdjust="spacing" textLength="196" x="51.5" y="91.2559">codProfesionSolicitante: string (0..1)</text><ellipse cx="43.5" cy="100.7988" fill="#84BE84" rx="3" ry="3" style="stroke:#038048;stroke-width:1.0;"/><text fill="#000000" font-family="Arial" font-size="12" lengthAdjust="spacing" textLength="196" x="51.5" y="105.0547">desProfesionSolicitante: string (0..1)</text><ellipse cx="43.5" cy="114.5977" fill="#84BE84" rx="3" ry="3" style="stroke:#038048;stroke-width:1.0;"/><text fill="#000000" font-family="Arial" font-size="12" lengthAdjust="spacing" textLength="218" x="51.5" y="118.8535">codTipoMatriculaSolicitante: string (0..1)</text><ellipse cx="43.5" cy="128.3965" fill="#84BE84" rx="3" ry="3" style="stroke:#038048;stroke-width:1.0;"/><text fill="#000000" font-family="Arial" font-size="12" lengthAdjust="spacing" textLength="184" x="51.5" y="132.6523">idMatriculaSolicitante: string (0..1)</text><path d="M311,49.11 L311,84.6 L275.83,88.6 L311,92.6 L311,128.1041 A0,0 0 0 0 311,128.1041 L549,128.1041 A0,0 0 0 0 549,128.1041 L549,59.11 L539,49.11 L311,49.11 A0,0 0 0 0 311,49.11 " fill="#FBFB77" filter="url(#f14lfwdk5inzna)" style="stroke:#A80036;stroke-width:1.0;"/><path d="M539,49.11 L539,59.11 L549,59.11 L539,49.11 " fill="#FBFB77" style="stroke:#A80036;stroke-width:1.0;"/><text fill="#000000" font-family="Arial" font-size="12" lengthAdjust="spacing" textLength="217" x="317" y="65.3659">Información del Profesional (Solicitante)</text><text fill="#000000" font-family="Arial" font-size="12" lengthAdjust="spacing" textLength="118" x="317" y="79.1647">- Código de profesión</text><text fill="#000000" font-family="Arial" font-size="12" lengthAdjust="spacing" textLength="143" x="317" y="92.9635">- Descripción de profesión</text><text fill="#000000" font-family="Arial" font-size="12" lengthAdjust="spacing" textLength="101" x="317" y="106.7623">- Tipo de matrícula</text><text fill="#000000" font-family="Arial" font-size="12" lengthAdjust="spacing" textLength="121" x="317" y="120.5612">- Número de matrícula</text><!--MD5=[647ad3131afc95a7f26df1f3fbb7e84f]
@startuml ProfesionalSolicitante

skinparam backgroundColor white
skinparam defaultFontName Arial
skinparam defaultFontSize 12

package "ProfesionalSolicitante" {
  class ProfesionalSolicitante {
    + codProfesionSolicitante: string (0..1)
    + desProfesionSolicitante: string (0..1)
    + codTipoMatriculaSolicitante: string (0..1)
    + idMatriculaSolicitante: string (0..1)
  }
}

note right of ProfesionalSolicitante
  Información del Profesional (Solicitante)
  - Código de profesión
  - Descripción de profesión
  - Tipo de matrícula
  - Número de matrícula
end note

@enduml

PlantUML version 1.2021.00(Sun Jan 10 07:25:05 ART 2021)
(MIT source distribution)
Java Runtime: OpenJDK Runtime Environment
JVM: OpenJDK 64-Bit Server VM
Default Encoding: UTF-8
Language: en
Country: AR
--></g></svg>