<?xml version="1.0" encoding="UTF-8" standalone="no"?><svg xmlns="http://www.w3.org/2000/svg" xmlns:xlink="http://www.w3.org/1999/xlink" contentScriptType="application/ecmascript" contentStyleType="text/css" height="203px" preserveAspectRatio="none" style="width:515px;height:203px;" version="1.1" viewBox="0 0 515 203" width="515px" zoomAndPan="magnify"><defs><filter height="300%" id="fjk4crcpfj5z9" width="300%" x="-1" y="-1"><feGaussianBlur result="blurOut" stdDeviation="2.0"/><feColorMatrix in="blurOut" result="blurOut2" type="matrix" values="0 0 0 0 0 0 0 0 0 0 0 0 0 0 0 0 0 0 .4 0"/><feOffset dx="4.0" dy="4.0" in="blurOut2" result="blurOut3"/><feBlend in="SourceGraphic" in2="blurOut3" mode="normal"/></filter></defs><g><!--MD5=[11dc7484ea7c2376bb896cf4b6bde38c]
cluster DatosContexto--><polygon fill="#FFFFFF" filter="url(#fjk4crcpfj5z9)" points="16,6,108,6,115,25.7988,292,25.7988,292,196.59,16,196.59,16,6" style="stroke:#000000;stroke-width:1.5;"/><line style="stroke:#000000;stroke-width:1.5;" x1="16" x2="115" y1="25.7988" y2="25.7988"/><text fill="#000000" font-family="Arial" font-size="12" font-weight="bold" lengthAdjust="spacing" textLength="86" x="20" y="19.2559">DatosContexto</text><!--MD5=[fa8391b6781e782621f9c78f4f5d1d14]
class DatosContexto--><rect codeLine="6" fill="#FEFECE" filter="url(#fjk4crcpfj5z9)" height="142.5918" id="DatosContexto" style="stroke:#A80036;stroke-width:1.5;" width="243" x="32.5" y="38"/><ellipse cx="109.5" cy="53" fill="#ADD1B2" rx="10" ry="10" style="stroke:#A80036;stroke-width:1.0;"/><path d="M111.334,57.248 Q110.9238,57.459 110.4727,57.5645 Q110.0215,57.6699 109.5234,57.6699 Q107.7539,57.6699 106.8223,56.5039 Q105.8906,55.3379 105.8906,53.1348 Q105.8906,50.9258 106.8223,49.7598 Q107.7539,48.5938 109.5234,48.5938 Q110.0215,48.5938 110.4785,48.6992 Q110.9355,48.8047 111.334,49.0156 L111.334,50.9375 Q110.8887,50.5273 110.4697,50.3369 Q110.0508,50.1465 109.6055,50.1465 Q108.6563,50.1465 108.1729,50.8994 Q107.6895,51.6523 107.6895,53.1348 Q107.6895,54.6113 108.1729,55.3643 Q108.6563,56.1172 109.6055,56.1172 Q110.0508,56.1172 110.4697,55.9268 Q110.8887,55.7363 111.334,55.3262 Z " fill="#000000"/><text fill="#000000" font-family="Arial" font-size="12" lengthAdjust="spacing" textLength="81" x="128.5" y="57.3564">DatosContexto</text><line style="stroke:#A80036;stroke-width:1.5;" x1="33.5" x2="274.5" y1="68" y2="68"/><line style="stroke:#A80036;stroke-width:1.5;" x1="33.5" x2="274.5" y1="76" y2="76"/><ellipse cx="43.5" cy="87" fill="#84BE84" rx="3" ry="3" style="stroke:#038048;stroke-width:1.0;"/><text fill="#000000" font-family="Arial" font-size="12" lengthAdjust="spacing" textLength="125" x="51.5" y="91.2559">codAmbito: string (1..1)</text><ellipse cx="43.5" cy="100.7988" fill="#84BE84" rx="3" ry="3" style="stroke:#038048;stroke-width:1.0;"/><text fill="#000000" font-family="Arial" font-size="12" lengthAdjust="spacing" textLength="125" x="51.5" y="105.0547">idEpisodio: string (0..1)</text><ellipse cx="43.5" cy="114.5977" fill="#84BE84" rx="3" ry="3" style="stroke:#038048;stroke-width:1.0;"/><text fill="#000000" font-family="Arial" font-size="12" lengthAdjust="spacing" textLength="207" x="51.5" y="118.8535">desEfectorProcesamiento: string (0..1)</text><ellipse cx="43.5" cy="128.3965" fill="#84BE84" rx="3" ry="3" style="stroke:#038048;stroke-width:1.0;"/><text fill="#000000" font-family="Arial" font-size="12" lengthAdjust="spacing" textLength="164" x="51.5" y="132.6523">desAmbitoDetalle: string (0..1)</text><ellipse cx="43.5" cy="142.1953" fill="#84BE84" rx="3" ry="3" style="stroke:#038048;stroke-width:1.0;"/><text fill="#000000" font-family="Arial" font-size="12" lengthAdjust="spacing" textLength="170" x="51.5" y="146.4512">desServicioDetalle: string (0..1)</text><ellipse cx="43.5" cy="155.9941" fill="#84BE84" rx="3" ry="3" style="stroke:#038048;stroke-width:1.0;"/><text fill="#000000" font-family="Arial" font-size="12" lengthAdjust="spacing" textLength="218" x="51.5" y="160.25">desAreaJerarquicaSolicitud: string (0..1)</text><ellipse cx="43.5" cy="169.793" fill="#84BE84" rx="3" ry="3" style="stroke:#038048;stroke-width:1.0;"/><text fill="#000000" font-family="Arial" font-size="12" lengthAdjust="spacing" textLength="116" x="51.5" y="174.0488">idPedido: string (1..1)</text><path d="M310,62.9 L310,105.29 L275.54,109.29 L310,113.29 L310,155.693 A0,0 0 0 0 310,155.693 L506,155.693 A0,0 0 0 0 506,155.693 L506,72.9 L496,62.9 L310,62.9 A0,0 0 0 0 310,62.9 " fill="#FBFB77" filter="url(#fjk4crcpfj5z9)" style="stroke:#A80036;stroke-width:1.0;"/><path d="M496,62.9 L496,72.9 L506,72.9 L496,62.9 " fill="#FBFB77" style="stroke:#A80036;stroke-width:1.0;"/><text fill="#000000" font-family="Arial" font-size="12" lengthAdjust="spacing" textLength="175" x="316" y="79.1559">Contexto del Servicio Realizado</text><text fill="#000000" font-family="Arial" font-size="12" lengthAdjust="spacing" textLength="112" x="316" y="92.9547">- Ámbito de atención</text><text fill="#000000" font-family="Arial" font-size="12" lengthAdjust="spacing" textLength="93" x="316" y="106.7535">- Episodio clínico</text><text fill="#000000" font-family="Arial" font-size="12" lengthAdjust="spacing" textLength="95" x="316" y="120.5523">- Efector de salud</text><text fill="#000000" font-family="Arial" font-size="12" lengthAdjust="spacing" textLength="88" x="316" y="134.3512">- Servicio y área</text><text fill="#000000" font-family="Arial" font-size="12" lengthAdjust="spacing" textLength="139" x="316" y="148.15">- Identificador de solicitud</text><!--MD5=[dd4974657c7d1b779b0e2eb68541f36e]
@startuml DatosContexto
skinparam backgroundColor white
skinparam defaultFontName Arial
skinparam defaultFontSize 12

package "DatosContexto" {
  class DatosContexto {
    + codAmbito: string (1..1)
    + idEpisodio: string (0..1)
    + desEfectorProcesamiento: string (0..1)
    + desAmbitoDetalle: string (0..1)
    + desServicioDetalle: string (0..1)
    + desAreaJerarquicaSolicitud: string (0..1)
    + idPedido: string (1..1)
  }
}

note right of DatosContexto
  Contexto del Servicio Realizado
  - Ámbito de atención
  - Episodio clínico
  - Efector de salud
  - Servicio y área
  - Identificador de solicitud
end note

@enduml

PlantUML version 1.2021.00(Sun Jan 10 07:25:05 ART 2021)
(MIT source distribution)
Java Runtime: OpenJDK Runtime Environment
JVM: OpenJDK 64-Bit Server VM
Default Encoding: UTF-8
Language: en
Country: AR
--></g></svg>