<?xml version="1.0" encoding="UTF-8" standalone="no"?><svg xmlns="http://www.w3.org/2000/svg" xmlns:xlink="http://www.w3.org/1999/xlink" contentScriptType="application/ecmascript" contentStyleType="text/css" height="148px" preserveAspectRatio="none" style="width:438px;height:148px;" version="1.1" viewBox="0 0 438 148" width="438px" zoomAndPan="magnify"><defs><filter height="300%" id="f1htbhnzxt3m0w" width="300%" x="-1" y="-1"><feGaussianBlur result="blurOut" stdDeviation="2.0"/><feColorMatrix in="blurOut" result="blurOut2" type="matrix" values="0 0 0 0 0 0 0 0 0 0 0 0 0 0 0 0 0 0 .4 0"/><feOffset dx="4.0" dy="4.0" in="blurOut2" result="blurOut3"/><feBlend in="SourceGraphic" in2="blurOut3" mode="normal"/></filter></defs><g><!--MD5=[f0a3b8c297ec88986e0c3ebe5bc667c7]
cluster DatosCobertura--><polygon fill="#FFFFFF" filter="url(#f1htbhnzxt3m0w)" points="16,6,114,6,121,25.7988,214,25.7988,214,141.4,16,141.4,16,6" style="stroke:#000000;stroke-width:1.5;"/><line style="stroke:#000000;stroke-width:1.5;" x1="16" x2="121" y1="25.7988" y2="25.7988"/><text fill="#000000" font-family="Arial" font-size="12" font-weight="bold" lengthAdjust="spacing" textLength="92" x="20" y="19.2559">DatosCobertura</text><!--MD5=[f6673f910be2816ee5e958aeb3e27df2]
class DatosCobertura--><rect codeLine="6" fill="#FEFECE" filter="url(#f1htbhnzxt3m0w)" height="87.3965" id="DatosCobertura" style="stroke:#A80036;stroke-width:1.5;" width="167" x="31.5" y="38"/><ellipse cx="68" cy="53" fill="#ADD1B2" rx="10" ry="10" style="stroke:#A80036;stroke-width:1.0;"/><path d="M69.834,57.248 Q69.4238,57.459 68.9727,57.5645 Q68.5215,57.6699 68.0234,57.6699 Q66.2539,57.6699 65.3223,56.5039 Q64.3906,55.3379 64.3906,53.1348 Q64.3906,50.9258 65.3223,49.7598 Q66.2539,48.5938 68.0234,48.5938 Q68.5215,48.5938 68.9785,48.6992 Q69.4355,48.8047 69.834,49.0156 L69.834,50.9375 Q69.3887,50.5273 68.9697,50.3369 Q68.5508,50.1465 68.1055,50.1465 Q67.1563,50.1465 66.6729,50.8994 Q66.1895,51.6523 66.1895,53.1348 Q66.1895,54.6113 66.6729,55.3643 Q67.1563,56.1172 68.1055,56.1172 Q68.5508,56.1172 68.9697,55.9268 Q69.3887,55.7363 69.834,55.3262 Z " fill="#000000"/><text fill="#000000" font-family="Arial" font-size="12" lengthAdjust="spacing" textLength="87" x="86" y="57.3564">DatosCobertura</text><line style="stroke:#A80036;stroke-width:1.5;" x1="32.5" x2="197.5" y1="68" y2="68"/><line style="stroke:#A80036;stroke-width:1.5;" x1="32.5" x2="197.5" y1="76" y2="76"/><ellipse cx="42.5" cy="87" fill="#84BE84" rx="3" ry="3" style="stroke:#038048;stroke-width:1.0;"/><text fill="#000000" font-family="Arial" font-size="12" lengthAdjust="spacing" textLength="142" x="50.5" y="91.2559">codCobertura: string (0..1)</text><ellipse cx="42.5" cy="100.7988" fill="#84BE84" rx="3" ry="3" style="stroke:#038048;stroke-width:1.0;"/><text fill="#000000" font-family="Arial" font-size="12" lengthAdjust="spacing" textLength="142" x="50.5" y="105.0547">desCobertura: string (0..1)</text><ellipse cx="42.5" cy="114.5977" fill="#84BE84" rx="3" ry="3" style="stroke:#038048;stroke-width:1.0;"/><text fill="#000000" font-family="Arial" font-size="12" lengthAdjust="spacing" textLength="132" x="50.5" y="118.8535">idCobertura: string (0..1)</text><path d="M233,42.2 L233,77.7 L198.95,81.7 L233,85.7 L233,121.1941 A0,0 0 0 0 233,121.1941 L429,121.1941 A0,0 0 0 0 429,121.1941 L429,52.2 L419,42.2 L233,42.2 A0,0 0 0 0 233,42.2 " fill="#FBFB77" filter="url(#f1htbhnzxt3m0w)" style="stroke:#A80036;stroke-width:1.0;"/><path d="M419,42.2 L419,52.2 L429,52.2 L419,42.2 " fill="#FBFB77" style="stroke:#A80036;stroke-width:1.0;"/><text fill="#000000" font-family="Arial" font-size="12" lengthAdjust="spacing" textLength="122" x="239" y="58.4559">Cobertura del Servicio</text><text fill="#000000" font-family="Arial" font-size="12" lengthAdjust="spacing" textLength="119" x="239" y="72.2547">- Código de cobertura</text><text fill="#000000" font-family="Arial" font-size="12" lengthAdjust="spacing" textLength="144" x="239" y="86.0535">- Descripción de cobertura</text><text fill="#000000" font-family="Arial" font-size="12" lengthAdjust="spacing" textLength="175" x="239" y="99.8523">- Número de carnet del paciente</text><text fill="#000000" font-family="Arial" font-size="12" lengthAdjust="spacing" textLength="129" x="239" y="113.6512">- Información de seguro</text><!--MD5=[f65f48378be1aa1aa96feee443f63edc]
@startuml DatosCobertura
skinparam backgroundColor white
skinparam defaultFontName Arial
skinparam defaultFontSize 12

package "DatosCobertura" {
  class DatosCobertura {
    + codCobertura: string (0..1)
    + desCobertura: string (0..1)
    + idCobertura: string (0..1)
  }
}

note right of DatosCobertura
  Cobertura del Servicio
  - Código de cobertura
  - Descripción de cobertura
  - Número de carnet del paciente
  - Información de seguro
end note

@enduml

PlantUML version 1.2021.00(Sun Jan 10 07:25:05 ART 2021)
(MIT source distribution)
Java Runtime: OpenJDK Runtime Environment
JVM: OpenJDK 64-Bit Server VM
Default Encoding: UTF-8
Language: en
Country: AR
--></g></svg>