<?xml version="1.0" encoding="UTF-8" standalone="no"?><svg xmlns="http://www.w3.org/2000/svg" xmlns:xlink="http://www.w3.org/1999/xlink" contentScriptType="application/ecmascript" contentStyleType="text/css" height="299px" preserveAspectRatio="none" style="width:605px;height:299px;" version="1.1" viewBox="0 0 605 299" width="605px" zoomAndPan="magnify"><defs><filter height="300%" id="f40zkcc95oq0p" width="300%" x="-1" y="-1"><feGaussianBlur result="blurOut" stdDeviation="2.0"/><feColorMatrix in="blurOut" result="blurOut2" type="matrix" values="0 0 0 0 0 0 0 0 0 0 0 0 0 0 0 0 0 0 .4 0"/><feOffset dx="4.0" dy="4.0" in="blurOut2" result="blurOut3"/><feBlend in="SourceGraphic" in2="blurOut3" mode="normal"/></filter></defs><g><!--MD5=[602b54f85f87eefb39aa5cf4e219f4d6]
cluster Prestaciones--><polygon fill="#FFFFFF" filter="url(#f40zkcc95oq0p)" points="16,6,98,6,105,25.7988,358,25.7988,358,292.69,16,292.69,16,6" style="stroke:#000000;stroke-width:1.5;"/><line style="stroke:#000000;stroke-width:1.5;" x1="16" x2="105" y1="25.7988" y2="25.7988"/><text fill="#000000" font-family="Arial" font-size="12" font-weight="bold" lengthAdjust="spacing" textLength="76" x="20" y="19.2559">Prestaciones</text><!--MD5=[df253b1cad17c0b535b1a7ff90811530]
class Prestaciones--><rect codeLine="6" fill="#FEFECE" filter="url(#f40zkcc95oq0p)" height="59.7988" id="Prestaciones" style="stroke:#A80036;stroke-width:1.5;" width="311" x="31.5" y="38"/><ellipse cx="147.5" cy="53" fill="#ADD1B2" rx="10" ry="10" style="stroke:#A80036;stroke-width:1.0;"/><path d="M149.334,57.248 Q148.9238,57.459 148.4727,57.5645 Q148.0215,57.6699 147.5234,57.6699 Q145.7539,57.6699 144.8223,56.5039 Q143.8906,55.3379 143.8906,53.1348 Q143.8906,50.9258 144.8223,49.7598 Q145.7539,48.5938 147.5234,48.5938 Q148.0215,48.5938 148.4785,48.6992 Q148.9355,48.8047 149.334,49.0156 L149.334,50.9375 Q148.8887,50.5273 148.4697,50.3369 Q148.0508,50.1465 147.6055,50.1465 Q146.6563,50.1465 146.1729,50.8994 Q145.6895,51.6523 145.6895,53.1348 Q145.6895,54.6113 146.1729,55.3643 Q146.6563,56.1172 147.6055,56.1172 Q148.0508,56.1172 148.4697,55.9268 Q148.8887,55.7363 149.334,55.3262 Z " fill="#000000"/><text fill="#000000" font-family="Arial" font-size="12" lengthAdjust="spacing" textLength="71" x="166.5" y="57.3564">Prestaciones</text><line style="stroke:#A80036;stroke-width:1.5;" x1="32.5" x2="341.5" y1="68" y2="68"/><line style="stroke:#A80036;stroke-width:1.5;" x1="32.5" x2="341.5" y1="76" y2="76"/><ellipse cx="42.5" cy="87" fill="#84BE84" rx="3" ry="3" style="stroke:#038048;stroke-width:1.0;"/><text fill="#000000" font-family="Arial" font-size="12" lengthAdjust="spacing" textLength="286" x="50.5" y="91.2559">prestaciones: RecuperoLaboratorioPrestacion[] (0..*)</text><!--MD5=[215f3eab48056dca8218b5f2c3cc4ca5]
class RecuperoLaboratorioPrestacion--><rect codeLine="10" fill="#FEFECE" filter="url(#f40zkcc95oq0p)" height="101.1953" id="RecuperoLaboratorioPrestacion" style="stroke:#A80036;stroke-width:1.5;" width="216" x="112" y="175.49"/><ellipse cx="130.95" cy="190.49" fill="#ADD1B2" rx="10" ry="10" style="stroke:#A80036;stroke-width:1.0;"/><path d="M132.784,194.738 Q132.3738,194.949 131.9227,195.0545 Q131.4715,195.1599 130.9734,195.1599 Q129.2039,195.1599 128.2723,193.9939 Q127.3406,192.8279 127.3406,190.6248 Q127.3406,188.4158 128.2723,187.2498 Q129.2039,186.0838 130.9734,186.0838 Q131.4715,186.0838 131.9285,186.1892 Q132.3855,186.2947 132.784,186.5056 L132.784,188.4275 Q132.3387,188.0173 131.9197,187.8269 Q131.5008,187.6365 131.0555,187.6365 Q130.1063,187.6365 129.6229,188.3894 Q129.1395,189.1423 129.1395,190.6248 Q129.1395,192.1013 129.6229,192.8543 Q130.1063,193.6072 131.0555,193.6072 Q131.5008,193.6072 131.9197,193.4168 Q132.3387,193.2263 132.784,192.8162 Z " fill="#000000"/><text fill="#000000" font-family="Arial" font-size="12" lengthAdjust="spacing" textLength="175" x="145.05" y="194.8464">RecuperoLaboratorioPrestacion</text><line style="stroke:#A80036;stroke-width:1.5;" x1="113" x2="327" y1="205.49" y2="205.49"/><line style="stroke:#A80036;stroke-width:1.5;" x1="113" x2="327" y1="213.49" y2="213.49"/><ellipse cx="123" cy="224.49" fill="#84BE84" rx="3" ry="3" style="stroke:#038048;stroke-width:1.0;"/><text fill="#000000" font-family="Arial" font-size="12" lengthAdjust="spacing" textLength="145" x="131" y="228.7459">codPrestacion: string (1..1)</text><ellipse cx="123" cy="238.2888" fill="#84BE84" rx="3" ry="3" style="stroke:#038048;stroke-width:1.0;"/><text fill="#000000" font-family="Arial" font-size="12" lengthAdjust="spacing" textLength="145" x="131" y="242.5447">desPrestacion: string (1..1)</text><ellipse cx="123" cy="252.0877" fill="#84BE84" rx="3" ry="3" style="stroke:#038048;stroke-width:1.0;"/><text fill="#000000" font-family="Arial" font-size="12" lengthAdjust="spacing" textLength="133" x="131" y="256.3435">codSnomed: string (0..1)</text><ellipse cx="123" cy="265.8865" fill="#84BE84" rx="3" ry="3" style="stroke:#038048;stroke-width:1.0;"/><text fill="#000000" font-family="Arial" font-size="12" lengthAdjust="spacing" textLength="191" x="131" y="270.1423">desPrestacionSnomed: string (0..1)</text><path d="M377.5,35.3 L377.5,63.9 L342.86,67.9 L377.5,71.9 L377.5,100.4953 A0,0 0 0 0 377.5,100.4953 L596.5,100.4953 A0,0 0 0 0 596.5,100.4953 L596.5,45.3 L586.5,35.3 L377.5,35.3 A0,0 0 0 0 377.5,35.3 " fill="#FBFB77" filter="url(#f40zkcc95oq0p)" style="stroke:#A80036;stroke-width:1.0;"/><path d="M586.5,35.3 L586.5,45.3 L596.5,45.3 L586.5,35.3 " fill="#FBFB77" style="stroke:#A80036;stroke-width:1.0;"/><text fill="#000000" font-family="Arial" font-size="12" lengthAdjust="spacing" textLength="181" x="383.5" y="51.5559">Lista de servicios/procedimientos</text><text fill="#000000" font-family="Arial" font-size="12" lengthAdjust="spacing" textLength="198" x="383.5" y="65.3547">- Múltiples prestaciones por solicitud</text><text fill="#000000" font-family="Arial" font-size="12" lengthAdjust="spacing" textLength="160" x="383.5" y="79.1535">- Códigos locales y SNOMED</text><text fill="#000000" font-family="Arial" font-size="12" lengthAdjust="spacing" textLength="145" x="383.5" y="92.9523">- Descripciones detalladas</text><path d="M373.5,193.49 L373.5,222.09 L328.08,226.09 L373.5,230.09 L373.5,258.6853 A0,0 0 0 0 373.5,258.6853 L576.5,258.6853 A0,0 0 0 0 576.5,258.6853 L576.5,203.49 L566.5,193.49 L373.5,193.49 A0,0 0 0 0 373.5,193.49 " fill="#FBFB77" filter="url(#f40zkcc95oq0p)" style="stroke:#A80036;stroke-width:1.0;"/><path d="M566.5,193.49 L566.5,203.49 L576.5,203.49 L566.5,193.49 " fill="#FBFB77" style="stroke:#A80036;stroke-width:1.0;"/><text fill="#000000" font-family="Arial" font-size="12" lengthAdjust="spacing" textLength="182" x="379.5" y="209.7459">Servicio/Procedimiento Individual</text><text fill="#000000" font-family="Arial" font-size="12" lengthAdjust="spacing" textLength="107" x="379.5" y="223.5447">- Identificador único</text><text fill="#000000" font-family="Arial" font-size="12" lengthAdjust="spacing" textLength="137" x="379.5" y="237.3435">- Descripción del servicio</text><text fill="#000000" font-family="Arial" font-size="12" lengthAdjust="spacing" textLength="120" x="379.5" y="251.1423">- Mapeo SNOMED CT</text><!--MD5=[c6ccd7e0403d08cb500139b90f0d7b96]
link Prestaciones to RecuperoLaboratorioPrestacion--><path codeLine="18" d="M195.12,107.31 C198.85,125 203.37,146.4 207.53,166.07 " fill="none" id="Prestaciones-RecuperoLaboratorioPrestacion" style="stroke:#A80036;stroke-width:1.0;"/><line style="stroke:#A80036;stroke-width:1.0;" x1="207.517" x2="215.0321" y1="165.9505" y2="172.5477"/><line style="stroke:#A80036;stroke-width:1.0;" x1="207.517" x2="203.2879" y1="165.9505" y2="175.0123"/><line style="stroke:#A80036;stroke-width:1.0;" x1="207.517" x2="209.16" y1="165.9505" y2="173.78"/><ellipse cx="206.2847" cy="160.0784" fill="none" rx="4" ry="4" style="stroke:#A80036;stroke-width:1.0;"/><line style="stroke:#A80036;stroke-width:1.0;" x1="190.4268" x2="198.2563" y1="104.4963" y2="102.8532"/><line style="stroke:#A80036;stroke-width:1.0;" x1="191.0429" x2="198.8724" y1="107.4323" y2="105.7893"/><line style="stroke:#A80036;stroke-width:1.0;" x1="195.163" x2="193.52" y1="107.5895" y2="99.76"/><text fill="#000000" font-family="Arial" font-size="12" lengthAdjust="spacing" textLength="46" x="203.51" y="142.7459">contains</text><!--MD5=[caddfdf7a68d5cd42779724361ef5ab3]
@startuml Prestaciones
skinparam backgroundColor white
skinparam defaultFontName Arial
skinparam defaultFontSize 12

package "Prestaciones" {
  class Prestaciones {
    + prestaciones: RecuperoLaboratorioPrestacion[] (0..*)
  }
  
  class RecuperoLaboratorioPrestacion {
    + codPrestacion: string (1..1)
    + desPrestacion: string (1..1)
    + codSnomed: string (0..1)
    + desPrestacionSnomed: string (0..1)
  }
}

Prestaciones ||- -o{ RecuperoLaboratorioPrestacion : contains

note right of Prestaciones
  Lista de servicios/procedimientos
  - Múltiples prestaciones por solicitud
  - Códigos locales y SNOMED
  - Descripciones detalladas
end note

note right of RecuperoLaboratorioPrestacion
  Servicio/Procedimiento Individual
  - Identificador único
  - Descripción del servicio
  - Mapeo SNOMED CT
end note

@enduml

PlantUML version 1.2021.00(Sun Jan 10 07:25:05 ART 2021)
(MIT source distribution)
Java Runtime: OpenJDK Runtime Environment
JVM: OpenJDK 64-Bit Server VM
Default Encoding: UTF-8
Language: en
Country: AR
--></g></svg>