<?xml version="1.0" encoding="UTF-8" standalone="no"?><svg xmlns="http://www.w3.org/2000/svg" xmlns:xlink="http://www.w3.org/1999/xlink" contentScriptType="application/ecmascript" contentStyleType="text/css" height="162px" preserveAspectRatio="none" style="width:474px;height:162px;" version="1.1" viewBox="0 0 474 162" width="474px" zoomAndPan="magnify"><defs><filter height="300%" id="fpc0jf6zbwpti" width="300%" x="-1" y="-1"><feGaussianBlur result="blurOut" stdDeviation="2.0"/><feColorMatrix in="blurOut" result="blurOut2" type="matrix" values="0 0 0 0 0 0 0 0 0 0 0 0 0 0 0 0 0 0 .4 0"/><feOffset dx="4.0" dy="4.0" in="blurOut2" result="blurOut3"/><feBlend in="SourceGraphic" in2="blurOut3" mode="normal"/></filter></defs><g><!--MD5=[f31e34cd5405686d5441f88bc0e58bef]
cluster DiagnosticoPresuntivo--><polygon fill="#FFFFFF" filter="url(#fpc0jf6zbwpti)" points="16,6,152,6,159,25.7988,270,25.7988,270,155.2,16,155.2,16,6" style="stroke:#000000;stroke-width:1.5;"/><line style="stroke:#000000;stroke-width:1.5;" x1="16" x2="159" y1="25.7988" y2="25.7988"/><text fill="#000000" font-family="Arial" font-size="12" font-weight="bold" lengthAdjust="spacing" textLength="130" x="20" y="19.2559">DiagnosticoPresuntivo</text><!--MD5=[64c5d3c82a61f4f24543757fb9b9bf5b]
class DiagnosticoPresuntivo--><rect codeLine="6" fill="#FEFECE" filter="url(#fpc0jf6zbwpti)" height="101.1953" id="DiagnosticoPresuntivo" style="stroke:#A80036;stroke-width:1.5;" width="223" x="31.5" y="38"/><ellipse cx="77.5" cy="53" fill="#ADD1B2" rx="10" ry="10" style="stroke:#A80036;stroke-width:1.0;"/><path d="M79.334,57.248 Q78.9238,57.459 78.4727,57.5645 Q78.0215,57.6699 77.5234,57.6699 Q75.7539,57.6699 74.8223,56.5039 Q73.8906,55.3379 73.8906,53.1348 Q73.8906,50.9258 74.8223,49.7598 Q75.7539,48.5938 77.5234,48.5938 Q78.0215,48.5938 78.4785,48.6992 Q78.9355,48.8047 79.334,49.0156 L79.334,50.9375 Q78.8887,50.5273 78.4697,50.3369 Q78.0508,50.1465 77.6055,50.1465 Q76.6563,50.1465 76.1729,50.8994 Q75.6895,51.6523 75.6895,53.1348 Q75.6895,54.6113 76.1729,55.3643 Q76.6563,56.1172 77.6055,56.1172 Q78.0508,56.1172 78.4697,55.9268 Q78.8887,55.7363 79.334,55.3262 Z " fill="#000000"/><text fill="#000000" font-family="Arial" font-size="12" lengthAdjust="spacing" textLength="123" x="96.5" y="57.3564">DiagnosticoPresuntivo</text><line style="stroke:#A80036;stroke-width:1.5;" x1="32.5" x2="253.5" y1="68" y2="68"/><line style="stroke:#A80036;stroke-width:1.5;" x1="32.5" x2="253.5" y1="76" y2="76"/><ellipse cx="42.5" cy="87" fill="#84BE84" rx="3" ry="3" style="stroke:#038048;stroke-width:1.0;"/><text fill="#000000" font-family="Arial" font-size="12" lengthAdjust="spacing" textLength="169" x="50.5" y="91.2559">codDiagnosticoTm: string (0..1)</text><ellipse cx="42.5" cy="100.7988" fill="#84BE84" rx="3" ry="3" style="stroke:#038048;stroke-width:1.0;"/><text fill="#000000" font-family="Arial" font-size="12" lengthAdjust="spacing" textLength="169" x="50.5" y="105.0547">desDiagnosticoTm: string (0..1)</text><ellipse cx="42.5" cy="114.5977" fill="#84BE84" rx="3" ry="3" style="stroke:#038048;stroke-width:1.0;"/><text fill="#000000" font-family="Arial" font-size="12" lengthAdjust="spacing" textLength="198" x="50.5" y="118.8535">codDiagnosticoSnomed: string (0..1)</text><ellipse cx="42.5" cy="128.3965" fill="#84BE84" rx="3" ry="3" style="stroke:#038048;stroke-width:1.0;"/><text fill="#000000" font-family="Arial" font-size="12" lengthAdjust="spacing" textLength="198" x="50.5" y="132.6523">desDiagnosticoSnomed: string (0..1)</text><path d="M289,49.11 L289,84.6 L254.97,88.6 L289,92.6 L289,128.1041 A0,0 0 0 0 289,128.1041 L465,128.1041 A0,0 0 0 0 465,128.1041 L465,59.11 L455,49.11 L289,49.11 A0,0 0 0 0 289,49.11 " fill="#FBFB77" filter="url(#fpc0jf6zbwpti)" style="stroke:#A80036;stroke-width:1.0;"/><path d="M455,49.11 L455,59.11 L465,59.11 L455,49.11 " fill="#FBFB77" style="stroke:#A80036;stroke-width:1.0;"/><text fill="#000000" font-family="Arial" font-size="12" lengthAdjust="spacing" textLength="155" x="295" y="65.3659">Información de Diagnósticos</text><text fill="#000000" font-family="Arial" font-size="12" lengthAdjust="spacing" textLength="123" x="295" y="79.1647">- Códigos locales (TM)</text><text fill="#000000" font-family="Arial" font-size="12" lengthAdjust="spacing" textLength="128" x="295" y="92.9635">- Códigos SNOMED CT</text><text fill="#000000" font-family="Arial" font-size="12" lengthAdjust="spacing" textLength="144" x="295" y="106.7623">- Descripciones asociadas</text><text fill="#000000" font-family="Arial" font-size="12" lengthAdjust="spacing" textLength="132" x="295" y="120.5612">- Diagnóstico presuntivo</text><!--MD5=[0f71b0037e8fb1ea1234d66ae8e19f32]
@startuml DiagnosticoPresuntivo
skinparam backgroundColor white
skinparam defaultFontName Arial
skinparam defaultFontSize 12

package "DiagnosticoPresuntivo" {
  class DiagnosticoPresuntivo {
    + codDiagnosticoTm: string (0..1)
    + desDiagnosticoTm: string (0..1)
    + codDiagnosticoSnomed: string (0..1)
    + desDiagnosticoSnomed: string (0..1)
  }
}

note right of DiagnosticoPresuntivo
  Información de Diagnósticos
  - Códigos locales (TM)
  - Códigos SNOMED CT
  - Descripciones asociadas
  - Diagnóstico presuntivo
end note

@enduml

PlantUML version 1.2021.00(Sun Jan 10 07:25:05 ART 2021)
(MIT source distribution)
Java Runtime: OpenJDK Runtime Environment
JVM: OpenJDK 64-Bit Server VM
Default Encoding: UTF-8
Language: en
Country: AR
--></g></svg>