<?xml version="1.0" encoding="UTF-8" standalone="no"?><svg xmlns="http://www.w3.org/2000/svg" xmlns:xlink="http://www.w3.org/1999/xlink" contentScriptType="application/ecmascript" contentStyleType="text/css" height="120px" preserveAspectRatio="none" style="width:558px;height:120px;" version="1.1" viewBox="0 0 558 120" width="558px" zoomAndPan="magnify"><defs><filter height="300%" id="f1ly6jey2fmwge" width="300%" x="-1" y="-1"><feGaussianBlur result="blurOut" stdDeviation="2.0"/><feColorMatrix in="blurOut" result="blurOut2" type="matrix" values="0 0 0 0 0 0 0 0 0 0 0 0 0 0 0 0 0 0 .4 0"/><feOffset dx="4.0" dy="4.0" in="blurOut2" result="blurOut3"/><feBlend in="SourceGraphic" in2="blurOut3" mode="normal"/></filter></defs><g><!--MD5=[7686768552e07fa3af38cf897897fcaa]
cluster DocumentacionAuditoria--><polygon fill="#FFFFFF" filter="url(#f1ly6jey2fmwge)" points="16,6,164,6,171,25.7988,278,25.7988,278,113.8,16,113.8,16,6" style="stroke:#000000;stroke-width:1.5;"/><line style="stroke:#000000;stroke-width:1.5;" x1="16" x2="171" y1="25.7988" y2="25.7988"/><text fill="#000000" font-family="Arial" font-size="12" font-weight="bold" lengthAdjust="spacing" textLength="142" x="20" y="19.2559">DocumentacionAuditoria</text><!--MD5=[c200d94ff203e8f7b98eef5e228037a2]
class DocumentacionAuditoria--><rect codeLine="6" fill="#FEFECE" filter="url(#f1ly6jey2fmwge)" height="59.7988" id="DocumentacionAuditoria" style="stroke:#A80036;stroke-width:1.5;" width="229" x="32.5" y="38"/><ellipse cx="75.5" cy="53" fill="#ADD1B2" rx="10" ry="10" style="stroke:#A80036;stroke-width:1.0;"/><path d="M77.334,57.248 Q76.9238,57.459 76.4727,57.5645 Q76.0215,57.6699 75.5234,57.6699 Q73.7539,57.6699 72.8223,56.5039 Q71.8906,55.3379 71.8906,53.1348 Q71.8906,50.9258 72.8223,49.7598 Q73.7539,48.5938 75.5234,48.5938 Q76.0215,48.5938 76.4785,48.6992 Q76.9355,48.8047 77.334,49.0156 L77.334,50.9375 Q76.8887,50.5273 76.4697,50.3369 Q76.0508,50.1465 75.6055,50.1465 Q74.6563,50.1465 74.1729,50.8994 Q73.6895,51.6523 73.6895,53.1348 Q73.6895,54.6113 74.1729,55.3643 Q74.6563,56.1172 75.6055,56.1172 Q76.0508,56.1172 76.4697,55.9268 Q76.8887,55.7363 77.334,55.3262 Z " fill="#000000"/><text fill="#000000" font-family="Arial" font-size="12" lengthAdjust="spacing" textLength="135" x="94.5" y="57.3564">DocumentacionAuditoria</text><line style="stroke:#A80036;stroke-width:1.5;" x1="33.5" x2="260.5" y1="68" y2="68"/><line style="stroke:#A80036;stroke-width:1.5;" x1="33.5" x2="260.5" y1="76" y2="76"/><ellipse cx="43.5" cy="87" fill="#84BE84" rx="3" ry="3" style="stroke:#038048;stroke-width:1.0;"/><text fill="#000000" font-family="Arial" font-size="12" lengthAdjust="spacing" textLength="204" x="51.5" y="91.2559">documentacionAuditoria: string[] (0..*)</text><path d="M296.5,28.4 L296.5,63.9 L261.82,67.9 L296.5,71.9 L296.5,107.3941 A0,0 0 0 0 296.5,107.3941 L549.5,107.3941 A0,0 0 0 0 549.5,107.3941 L549.5,38.4 L539.5,28.4 L296.5,28.4 A0,0 0 0 0 296.5,28.4 " fill="#FBFB77" filter="url(#f1ly6jey2fmwge)" style="stroke:#A80036;stroke-width:1.0;"/><path d="M539.5,28.4 L539.5,38.4 L549.5,38.4 L539.5,28.4 " fill="#FBFB77" style="stroke:#A80036;stroke-width:1.0;"/><text fill="#000000" font-family="Arial" font-size="12" lengthAdjust="spacing" textLength="232" x="302.5" y="44.6559">Archivos Adjuntos Documentando Servicio</text><text fill="#000000" font-family="Arial" font-size="12" lengthAdjust="spacing" textLength="165" x="302.5" y="58.4547">- Múltiples archivos permitidos</text><text fill="#000000" font-family="Arial" font-size="12" lengthAdjust="spacing" textLength="161" x="302.5" y="72.2535">- Documentación de auditoría</text><text fill="#000000" font-family="Arial" font-size="12" lengthAdjust="spacing" textLength="126" x="302.5" y="86.0523">- Evidencia del servicio</text><text fill="#000000" font-family="Arial" font-size="12" lengthAdjust="spacing" textLength="122" x="302.5" y="99.8512">- Archivos de respaldo</text><!--MD5=[a3e33bc989cd00284969770d37bb5bb9]
@startuml DocumentacionAuditoria
skinparam backgroundColor white
skinparam defaultFontName Arial
skinparam defaultFontSize 12

package "DocumentacionAuditoria" {
  class DocumentacionAuditoria {
    + documentacionAuditoria: string[] (0..*)
  }
}

note right of DocumentacionAuditoria
  Archivos Adjuntos Documentando Servicio
  - Múltiples archivos permitidos
  - Documentación de auditoría
  - Evidencia del servicio
  - Archivos de respaldo
end note

@enduml

PlantUML version 1.2021.00(Sun Jan 10 07:25:05 ART 2021)
(MIT source distribution)
Java Runtime: OpenJDK Runtime Environment
JVM: OpenJDK 64-Bit Server VM
Default Encoding: UTF-8
Language: en
Country: AR
--></g></svg>