<?xml version="1.0" encoding="UTF-8" standalone="no"?><svg xmlns="http://www.w3.org/2000/svg" xmlns:xlink="http://www.w3.org/1999/xlink" contentScriptType="application/ecmascript" contentStyleType="text/css" height="175px" preserveAspectRatio="none" style="width:599px;height:175px;" version="1.1" viewBox="0 0 599 175" width="599px" zoomAndPan="magnify"><defs><filter height="300%" id="f5xzhzdibtfp0" width="300%" x="-1" y="-1"><feGaussianBlur result="blurOut" stdDeviation="2.0"/><feColorMatrix in="blurOut" result="blurOut2" type="matrix" values="0 0 0 0 0 0 0 0 0 0 0 0 0 0 0 0 0 0 .4 0"/><feOffset dx="4.0" dy="4.0" in="blurOut2" result="blurOut3"/><feBlend in="SourceGraphic" in2="blurOut3" mode="normal"/></filter></defs><g><!--MD5=[80cd431faea38356e939fedfcaf174c2]
cluster ProfesionalEfector--><polygon fill="#FFFFFF" filter="url(#f5xzhzdibtfp0)" points="16,6,129,6,136,25.7988,282,25.7988,282,168.99,16,168.99,16,6" style="stroke:#000000;stroke-width:1.5;"/><line style="stroke:#000000;stroke-width:1.5;" x1="16" x2="136" y1="25.7988" y2="25.7988"/><text fill="#000000" font-family="Arial" font-size="12" font-weight="bold" lengthAdjust="spacing" textLength="107" x="20" y="19.2559">ProfesionalEfector</text><!--MD5=[d03a9035adccac712f4a5af594cfaae3]
class ProfesionalEfector--><rect codeLine="6" fill="#FEFECE" filter="url(#f5xzhzdibtfp0)" height="114.9941" id="ProfesionalEfector" style="stroke:#A80036;stroke-width:1.5;" width="234" x="32" y="38"/><ellipse cx="95" cy="53" fill="#ADD1B2" rx="10" ry="10" style="stroke:#A80036;stroke-width:1.0;"/><path d="M96.834,57.248 Q96.4238,57.459 95.9727,57.5645 Q95.5215,57.6699 95.0234,57.6699 Q93.2539,57.6699 92.3223,56.5039 Q91.3906,55.3379 91.3906,53.1348 Q91.3906,50.9258 92.3223,49.7598 Q93.2539,48.5938 95.0234,48.5938 Q95.5215,48.5938 95.9785,48.6992 Q96.4355,48.8047 96.834,49.0156 L96.834,50.9375 Q96.3887,50.5273 95.9697,50.3369 Q95.5508,50.1465 95.1055,50.1465 Q94.1563,50.1465 93.6729,50.8994 Q93.1895,51.6523 93.1895,53.1348 Q93.1895,54.6113 93.6729,55.3643 Q94.1563,56.1172 95.1055,56.1172 Q95.5508,56.1172 95.9697,55.9268 Q96.3887,55.7363 96.834,55.3262 Z " fill="#000000"/><text fill="#000000" font-family="Arial" font-size="12" lengthAdjust="spacing" textLength="100" x="114" y="57.3564">ProfesionalEfector</text><line style="stroke:#A80036;stroke-width:1.5;" x1="33" x2="265" y1="68" y2="68"/><line style="stroke:#A80036;stroke-width:1.5;" x1="33" x2="265" y1="76" y2="76"/><ellipse cx="43" cy="87" fill="#84BE84" rx="3" ry="3" style="stroke:#038048;stroke-width:1.0;"/><text fill="#000000" font-family="Arial" font-size="12" lengthAdjust="spacing" textLength="187" x="51" y="91.2559">codProfesionFirmante: string (0..1)</text><ellipse cx="43" cy="100.7988" fill="#84BE84" rx="3" ry="3" style="stroke:#038048;stroke-width:1.0;"/><text fill="#000000" font-family="Arial" font-size="12" lengthAdjust="spacing" textLength="187" x="51" y="105.0547">desProfesionFirmante: string (0..1)</text><ellipse cx="43" cy="114.5977" fill="#84BE84" rx="3" ry="3" style="stroke:#038048;stroke-width:1.0;"/><text fill="#000000" font-family="Arial" font-size="12" lengthAdjust="spacing" textLength="128" x="51" y="118.8535">profesional: string (0..1)</text><ellipse cx="43" cy="128.3965" fill="#84BE84" rx="3" ry="3" style="stroke:#038048;stroke-width:1.0;"/><text fill="#000000" font-family="Arial" font-size="12" lengthAdjust="spacing" textLength="209" x="51" y="132.6523">codTipoMatriculaFirmante: string (0..1)</text><ellipse cx="43" cy="142.1953" fill="#84BE84" rx="3" ry="3" style="stroke:#038048;stroke-width:1.0;"/><text fill="#000000" font-family="Arial" font-size="12" lengthAdjust="spacing" textLength="175" x="51" y="146.4512">idMatriculaFirmante: string (0..1)</text><path d="M301.5,49.1 L301.5,91.49 L266.47,95.49 L301.5,99.49 L301.5,141.893 A0,0 0 0 0 301.5,141.893 L590.5,141.893 A0,0 0 0 0 590.5,141.893 L590.5,59.1 L580.5,49.1 L301.5,49.1 A0,0 0 0 0 301.5,49.1 " fill="#FBFB77" filter="url(#f5xzhzdibtfp0)" style="stroke:#A80036;stroke-width:1.0;"/><path d="M580.5,49.1 L580.5,59.1 L590.5,59.1 L580.5,49.1 " fill="#FBFB77" style="stroke:#A80036;stroke-width:1.0;"/><text fill="#000000" font-family="Arial" font-size="12" lengthAdjust="spacing" textLength="268" x="307.5" y="65.3559">Información del Profesional (Firmante/Atendedor)</text><text fill="#000000" font-family="Arial" font-size="12" lengthAdjust="spacing" textLength="118" x="307.5" y="79.1547">- Código de profesión</text><text fill="#000000" font-family="Arial" font-size="12" lengthAdjust="spacing" textLength="143" x="307.5" y="92.9535">- Descripción de profesión</text><text fill="#000000" font-family="Arial" font-size="12" lengthAdjust="spacing" textLength="135" x="307.5" y="106.7523">- Nombre del profesional</text><text fill="#000000" font-family="Arial" font-size="12" lengthAdjust="spacing" textLength="101" x="307.5" y="120.5512">- Tipo de matrícula</text><text fill="#000000" font-family="Arial" font-size="12" lengthAdjust="spacing" textLength="121" x="307.5" y="134.35">- Número de matrícula</text><!--MD5=[4d9350b00483d496a0b203f64a1a5e16]
@startuml ProfesionalEfector
skinparam backgroundColor white
skinparam defaultFontName Arial
skinparam defaultFontSize 12

package "ProfesionalEfector" {
  class ProfesionalEfector {
    + codProfesionFirmante: string (0..1)
    + desProfesionFirmante: string (0..1)
    + profesional: string (0..1)
    + codTipoMatriculaFirmante: string (0..1)
    + idMatriculaFirmante: string (0..1)
  }
}

note right of ProfesionalEfector
  Información del Profesional (Firmante/Atendedor)
  - Código de profesión
  - Descripción de profesión
  - Nombre del profesional
  - Tipo de matrícula
  - Número de matrícula
end note

@enduml

PlantUML version 1.2021.00(Sun Jan 10 07:25:05 ART 2021)
(MIT source distribution)
Java Runtime: OpenJDK Runtime Environment
JVM: OpenJDK 64-Bit Server VM
Default Encoding: UTF-8
Language: en
Country: AR
--></g></svg>